:SAMPLES-PER-SECOND 30
:FULLY-SPECIFIED
:DEGREES
305
root  -11.124 37.7376 10.6721 9.98689 66.3173 17.9707
RightUpLeg  -19.0359 -1.05775 -12.0509
RightLeg  68.9493 1.85864 4.58828
RightFoot  0.0856148 -0.615159 6.14105
RightToes  -1.74624e-010 0 -3.6325e-017
Spine  15.0377 1.11635 -1.52339
Spine1  3.07424 1.90996 -6.20429
HEad  -29.2595 -45.0343 10.2044
LeftShoulder1  -0.260892 4.20668 -30.9777
LeftArm  -0.988386 11.1259 -39.2333
LeftForeArm  30.0405 -15.8765 -5.80706
LeftHand  -0.0979852 7.00939 -3.39531
RightShoulder  -0.430575 -4.82761 25.6242
RightArm  0.575872 16.3629 38.108
RightForeArm  24.8247 40.3223 7.90481
RightHand  -0.878392 8.18879 -7.8531
LeftUpLeg  -13.8222 7.45378 -2.02962
LeftLeg  29.5983 -3.5929 -1.84558
LeftFoot  -7.09157 0.0768352 -0.929405
LeftToes  -3.96543e-010 8.93632e-011 -2.58531e-011
306
root  -10.3051 37.9722 10.5988 9.13359 64.7339 16.1491
RightUpLeg  -22.7111 -2.84324 -11.5665
RightLeg  63.9125 2.5133 4.99216
RightFoot  -0.941783 -0.591834 6.46877
RightToes  -1.74624e-010 0 -3.6325e-017
Spine  15.216 0.728738 -0.856335
Spine1  2.97351 1.62427 -5.88576
HEad  -30.672 -45.4075 10.9252
LeftShoulder1  -0.166364 3.9616 -30.1571
LeftArm  -0.207787 10.7552 -39.4355
LeftForeArm  25.2289 -19.3534 -4.42537
LeftHand  -0.0247867 5.54156 0.386723
RightShoulder  -0.316778 -4.56001 22.8624
RightArm  -10.2472 21.2716 33.5919
RightForeArm  27.1562 42.4366 8.42432
RightHand  -0.908629 8.65878 -7.87236
LeftUpLeg  -12.815 8.62245 -2.10582
LeftLeg  28.5875 -3.06569 -1.45078
LeftFoot  -7.87158 0.0616725 -0.480653
LeftToes  -3.96543e-010 8.93632e-011 -2.58531e-011
307
root  -9.50321 38.2311 10.5805 8.63423 63.4864 15.0022
RightUpLeg  -24.3218 -3.82166 -11.1545
RightLeg  55.3363 2.71234 3.9262
RightFoot  -2.95156 -0.56435 7.38213
RightToes  -1.74624e-010 0 -3.6325e-017
Spine  15.6081 0.286703 0.233562
Spine1  2.68727 1.41132 -6.05889
HEad  -31.8959 -46.2153 11.2402
LeftShoulder1  -0.0562747 3.66322 -29.3097
LeftArm  -0.148056 10.3672 -39.08
LeftForeArm  23.0636 -22.6693 -3.87869
LeftHand  -0.0271485 5.37592 1.67768
RightShoulder  -0.229184 -4.34439 20.0103
RightArm  -21.0349 25.5469 28.1106
RightForeArm  29.9986 44.6658 8.98313
RightHand  -0.959461 9.66716 -7.74494
LeftUpLeg  -11.2215 9.51381 -2.2687
LeftLeg  26.9508 -2.65424 -1.11136
LeftFoot  -8.37145 0.0563915 -0.236422
LeftToes  -3.96543e-010 8.93632e-011 -2.58531e-011
308
root  -8.70342 38.4559 10.6392 8.47907 62.4647 14.1636
RightUpLeg  -24.7714 -3.54707 -10.9103
RightLeg  44.9667 1.60025 1.38732
RightFoot  -2.82161 -0.518377 6.69853
RightToes  -1.74624e-010 0 -3.6325e-017
Spine  16.0567 -0.269457 1.85021
Spine1  1.92682 1.24196 -6.81724
HEad  -34.33 -46.4004 12.8423
LeftShoulder1  -0.0052239 3.51875 -28.7411
LeftArm  -1.83744 10.4395 -37.8123
LeftForeArm  23.9966 -26.6111 -4.40138
LeftHand  -0.0233652 5.53854 2.99733
RightShoulder  -0.203095 -4.32471 17.3153
RightArm  -31.0104 28.9749 21.6467
RightForeArm  31.2495 47.1789 9.81957
RightHand  -1.18962 10.6223 -9.0014
LeftUpLeg  -9.66607 10.1569 -2.43729
LeftLeg  25.2515 -2.2479 -0.804682
LeftFoot  -8.86144 0.0551266 -0.0881107
LeftToes  -3.96543e-010 8.93632e-011 -2.58531e-011
309
root  -7.9279 38.5724 10.7801 9.64744 62.0471 14.3274
RightUpLeg  -24.7312 -2.00391 -11.6814
RightLeg  34.5108 2.45951 1.479
RightFoot  -2.31716 -0.51447 6.30674
RightToes  -1.74624e-010 0 -3.6325e-017
Spine  15.7709 -0.896535 3.1596
Spine1  1.4918 0.920953 -7.45375
HEad  -35.4079 -47.2438 13.2463
LeftShoulder1  0.103238 3.20199 -28.0872
LeftArm  -4.59112 10.6364 -36.8481
LeftForeArm  26.2038 -30.4427 -5.18355
LeftHand  -0.031013 5.02813 2.78131
RightShoulder  -0.160191 -4.2432 13.9601
RightArm  -41.1082 30.3194 15.4213
RightForeArm  35.081 51.1073 11.1671
RightHand  -1.12087 10.3809 -8.61449
LeftUpLeg  -8.98599 10.0571 -3.01105
LeftLeg  24.2442 -1.72107 -0.499394
LeftFoot  -9.50541 0.057462 -0.0223984
LeftToes  -3.96543e-010 8.93632e-011 -2.58531e-011
310
root  -7.18311 38.6051 11.0274 11.3894 62.1217 15.6165
RightUpLeg  -23.9423 2.27977 -13.7342
RightLeg  25.6965 5.71027 2.8029
RightFoot  -2.9409 -0.476853 6.21234
RightToes  -1.74624e-010 0 -3.6325e-017
Spine  15.8485 -1.62282 4.18414
Spine1  1.05333 0.469282 -8.29589
HEad  -35.8347 -48.2977 13.7217
LeftShoulder1  0.221346 2.83815 -27.0938
LeftArm  -7.3945 11.1897 -36.0848
LeftForeArm  28.1686 -34.179 -5.98282
LeftHand  -0.0418302 4.14603 1.98085
RightShoulder  -0.131357 -4.2106 10.9464
RightArm  -49.9556 29.636 9.56305
RightForeArm  38.6975 56.4829 13.6246
RightHand  -1.0518 9.03988 -8.80391
LeftUpLeg  -7.99862 9.44689 -3.83542
LeftLeg  23.5735 -1.2463 -0.248316
LeftFoot  -10.3232 0.0617495 0.0243351
LeftToes  -3.96543e-010 8.93632e-011 -2.58531e-011
311
root  -6.47964 38.5395 11.3694 13.218 62.9586 17.2722
RightUpLeg  -23.1134 6.59959 -15.6523
RightLeg  20.6186 7.48091 2.91244
RightFoot  -2.10457 -0.528624 6.45419
RightToes  -1.74624e-010 0 -3.6325e-017
Spine  16.3139 -2.45585 5.43545
Spine1  0.228298 -0.102742 -9.21795
HEad  -36.6568 -50.1392 14.7653
LeftShoulder1  0.347578 2.43566 -26.3213
LeftArm  -9.0361 11.2789 -35.3061
LeftForeArm  28.6245 -37.0082 -6.70567
LeftHand  -0.0435927 4.68989 3.44754
RightShoulder  -0.171024 -4.56271 8.35612
RightArm  -57.6863 27.6535 5.40531
RightForeArm  43.0314 63.2401 18.2036
RightHand  -1.24296 8.54131 -10.6882
LeftUpLeg  -7.14599 8.35477 -4.42802
LeftLeg  23.7666 -1.10969 -0.190781
LeftFoot  -11.6389 0.0702756 0.0389084
LeftToes  -3.96543e-010 8.93632e-011 -2.58531e-011
312
root  -5.81388 38.4585 11.7578 14.8051 64.3008 18.7999
RightUpLeg  -22.9821 7.12162 -16.1062
RightLeg  21.6019 8.45111 3.43817
RightFoot  1.85338 -0.632801 5.54421
RightToes  -1.74624e-010 0 -3.6325e-017
Spine  16.5472 -3.42146 7.02978
Spine1  -0.181719 -0.892593 -9.62825
HEad  -37.9741 -51.7433 15.4541
LeftShoulder1  0.402996 2.23469 -25.5574
LeftArm  -10.4284 11.4225 -35.0521
LeftForeArm  28.7229 -39.4509 -7.39403
LeftHand  -0.057325 4.21628 3.76492
RightShoulder  -0.185869 -4.85201 5.82726
RightArm  -64.1098 24.7953 2.74682
RightForeArm  52.2642 71.0939 27.5521
RightHand  -1.13544 7.27756 -10.7103
LeftUpLeg  -6.20168 6.40635 -4.73723
LeftLeg  24.0566 -0.579163 0.0614113
LeftFoot  -13.074 0.0763249 -0.0589747
LeftToes  -3.96543e-010 8.93632e-011 -2.58531e-011
313
root  -5.20065 38.2445 12.1842 16.1969 65.1281 19.6164
RightUpLeg  -24.4782 6.39801 -16.0034
RightLeg  26.4463 7.11105 3.63914
RightFoot  -1.5757 -0.431506 4.92254
RightToes  -1.74624e-010 0 -3.6325e-017
Spine  17.0489 -4.02819 9.09706
Spine1  -1.75169 -1.15623 -10.8007
HEad  -38.9129 -53.9434 16.1509
LeftShoulder1  0.505011 1.8941 -25.1316
LeftArm  -11.9779 11.947 -35.3367
LeftForeArm  29.6655 -41.5116 -7.96043
LeftHand  -0.0664747 3.71444 3.3926
RightShoulder  -0.201834 -5.17791 3.96973
RightArm  -68.8636 21.2723 0.917968
RightForeArm  73.6676 78.1904 49.8455
RightHand  -1.24499 7.59288 -11.441
LeftUpLeg  -6.52847 4.73389 -4.74964
LeftLeg  25.8872 -0.0329963 0.329102
LeftFoot  -15.1425 0.0767758 -0.451499
LeftToes  -3.96543e-010 8.93632e-011 -2.58531e-011
314
root  -4.5995 38.0721 12.6201 17.5417 65.3712 20.5911
RightUpLeg  -25.4801 4.4592 -15.8294
RightLeg  30.009 7.99919 4.73267
RightFoot  -2.67156 -0.26951 3.30951
RightToes  -1.74624e-010 0 -3.6325e-017
Spine  17.4031 -4.27484 10.3019
Spine1  -2.49773 -1.28897 -10.8599
HEad  -40.0432 -55.4956 16.2521
LeftShoulder1  0.505426 1.90107 -25.3121
LeftArm  -12.4208 12.3394 -35.843
LeftForeArm  29.9732 -43.1438 -8.4668
LeftHand  -0.0621872 3.68598 3.04635
RightShoulder  -0.202221 -5.52473 1.70589
RightArm  -72.8339 18.2588 0.63141
RightForeArm  118.954 80.9732 95.5736
RightHand  -1.39395 7.65455 -12.6932
LeftUpLeg  -6.32566 3.96813 -4.87636
LeftLeg  27.0314 0.345005 0.538095
LeftFoot  -16.6213 0.0801439 -0.418766
LeftToes  -3.96543e-010 8.93632e-011 -2.58531e-011
315
root  -4.0039 37.9692 13.0957 20.4213 66.0764 23.4465
RightUpLeg  -25.648 3.1471 -16.3902
RightLeg  32.9367 7.67511 5.08892
RightFoot  -4.52237 -0.165405 2.25644
RightToes  -1.74624e-010 0 -3.6325e-017
Spine  17.2792 -4.73418 10.4875
Spine1  -2.4453 -1.83761 -10.4104
HEad  -41.4566 -55.7901 16.941
LeftShoulder1  0.494697 1.92529 -25.1346
LeftArm  -12.8073 13.0726 -36.9687
LeftForeArm  30.9552 -44.2225 -8.76314
LeftHand  -0.0697141 3.70503 3.65813
RightShoulder  -0.229741 -6.01221 0.745272
RightArm  -74.9231 16.8232 -0.331523
RightForeArm  144.736 79.3633 122.544
RightHand  -1.6783 7.96185 -14.8407
LeftUpLeg  -5.29212 3.11648 -5.45061
LeftLeg  26.8632 0.167953 0.438518
LeftFoot  -17.5162 0.0668481 -0.70701
LeftToes  -3.96543e-010 8.93632e-011 -2.58531e-011
316
root  -3.43761 37.9845 13.546 22.7519 66.3958 25.3033
RightUpLeg  -25.5554 2.40856 -16.6736
RightLeg  34.311 7.50306 5.23439
RightFoot  -6.11379 -0.108022 1.47474
RightToes  -1.74624e-010 0 -3.6325e-017
Spine  17.2495 -4.80806 10.6549
Spine1  -3.18654 -2.14535 -9.2816
HEad  -42.0341 -56.4694 17.0823
LeftShoulder1  0.41011 2.23298 -26.0572
LeftArm  -11.6748 13.4067 -37.3237
LeftForeArm  32.7264 -44.3157 -8.67583
LeftHand  -0.0752445 3.21894 3.22097
RightShoulder  -0.221268 -6.20144 -0.291554
RightArm  -74.7235 16.2496 -1.2232
RightForeArm  140.084 79.5529 119.406
RightHand  -1.86447 9.05728 -15.2649
LeftUpLeg  -4.34804 2.22587 -5.76712
LeftLeg  25.893 0.240337 0.469985
LeftFoot  -17.667 0.029017 -1.38973
LeftToes  -3.96543e-010 8.93632e-011 -2.58531e-011
317
root  -2.87533 38.0959 13.9895 24.2129 66.0315 25.7846
RightUpLeg  -25.5779 2.60151 -16.7037
RightLeg  34.4338 7.35647 5.15304
RightFoot  -7.14574 -0.0960768 1.29578
RightToes  -1.74624e-010 0 -3.6325e-017
Spine  16.7387 -4.74518 11.8827
Spine1  -3.8804 -1.91362 -10.0527
HEad  -43.2571 -56.8823 18.5925
LeftShoulder1  0.38946 2.30728 -26.3541
LeftArm  -9.34491 13.7676 -37.8883
LeftForeArm  34.1583 -43.8371 -8.42018
LeftHand  -0.0639902 3.63108 3.04281
RightShoulder  -0.208748 -6.36691 -1.36666
RightArm  -73.1478 16.4166 -1.9832
RightForeArm  105.962 80.7712 84.2346
RightHand  -1.66354 9.51235 -13.267
LeftUpLeg  -3.88006 2.24369 -5.69062
LeftLeg  24.9107 -0.130874 0.27541
LeftFoot  -17.0007 -0.0362269 -2.81174
LeftToes  -3.96543e-010 8.93632e-011 -2.58531e-011
